<?xml version="1.0" encoding="iso-8859-1"?>
<!-- Generator: Adobe Illustrator 18.0.0, SVG Export Plug-In . SVG Version: 6.00 Build 0)  -->
<!DOCTYPE svg PUBLIC "-//W3C//DTD SVG 1.1//EN" "http://www.w3.org/Graphics/SVG/1.1/DTD/svg11.dtd">
<svg version="1.1" id="Capa_1" xmlns="http://www.w3.org/2000/svg" xmlns:xlink="http://www.w3.org/1999/xlink" x="0px" y="0px"
	 viewBox="0 0 175.469 175.469" style="enable-background:new 0 0 175.469 175.469;" xml:space="preserve">
<g>
	<g>
		<g>
			<ellipse style="fill:#E8EDD1;" cx="170.697" cy="104.613" rx="4.772" ry="9.989"/>
		</g>
		<g>
			<path style="fill:#F16C21;" d="M165.775,118.403c-0.87-10.713-6.15-37.015-36.533-48.427
				c-17.559-6.595-28.622-25.354-28.622-45.36v-6.028H40.638l-10.98,55.508l-6.54,3.096C10.424,83.201,1.913,95.536,0.801,109.535
				l-0.704,8.867H165.775z"/>
		</g>
		<g>
			<polygon style="fill:#E85F21;" points="169.114,93.283 154.405,105.17 154.405,109.134 171.192,114.602 			"/>
		</g>
		<g>
			<path style="fill:#E8EDD1;" d="M117.43,70.783C95.565,57.977,94.64,33.835,94.972,25.87h-48.06l-9.454,48.225h79.083
				C118.356,74.095,118.997,71.701,117.43,70.783z"/>
		</g>
		<g>
			<rect x="132.268" y="42.699" style="fill:#E85F21;" width="6.53" height="22.605"/>
		</g>
		<g>
			<path style="fill:#C8541A;" d="M119.113,115.397h-82.45V78.576h82.45V115.397z M38.253,113.807h79.271V80.165H38.253V113.807z"/>
		</g>
		<g>
			<rect x="41.385" y="85.398" style="fill:#C8541A;" width="13.963" height="1.507"/>
		</g>
		<g>
			<polygon style="fill:#E85F21;" points="127.662,116.481 126.071,116.481 126.071,53.206 135.533,53.206 135.533,54.796 
				127.662,54.796 			"/>
		</g>
	</g>
	<rect x="0" y="116.606" style="fill:#51444C;" width="166.05" height="3.914"/>
	<g>
		<circle style="fill:#51444C;" cx="122.287" cy="131.928" r="24.954"/>
	</g>
	<g>
		<circle style="fill:#DBDBB9;" cx="122.287" cy="131.928" r="7.74"/>
	</g>
	<g>
		<path style="fill:#DBDBB9;" d="M122.286,143.46c-6.359,0-11.532-5.174-11.532-11.532c0-6.359,5.173-11.533,11.532-11.533
			c6.36,0,11.533,5.174,11.533,11.533C133.819,138.286,128.646,143.46,122.286,143.46z M122.286,121.985
			c-5.481,0-9.942,4.461-9.942,9.943c0,5.482,4.461,9.942,9.942,9.942c5.482,0,9.943-4.46,9.943-9.942
			C132.229,126.446,127.769,121.985,122.286,121.985z"/>
	</g>
	<g>
		<path style="fill:#D3581C;" d="M150.543,128.474H94.03l0,0c0-13.109,10.627-23.736,23.735-23.736h9.042
			C139.916,104.738,150.543,115.364,150.543,128.474L150.543,128.474z"/>
	</g>
	<g>
		<circle style="fill:#51444C;" cx="40.342" cy="125.56" r="29.008"/>
	</g>
	<g>
		<circle style="fill:#DBDBB9;" cx="40.561" cy="125.56" r="8.997"/>
	</g>
	<g>
		<path style="fill:#DBDBB9;" d="M40.56,138.837c-7.321,0-13.276-5.956-13.276-13.277c0-7.32,5.956-13.276,13.276-13.276
			c7.322,0,13.278,5.956,13.278,13.276C53.838,132.881,47.882,138.837,40.56,138.837z M40.56,113.873
			c-6.443,0-11.687,5.242-11.687,11.687c0,6.444,5.243,11.688,11.687,11.688c6.445,0,11.688-5.243,11.688-11.688
			C52.248,119.116,47.005,113.873,40.56,113.873z"/>
	</g>
	<g>
		<path style="fill:#D3581C;" d="M73.188,121.4H7.495l0,0c0-15.238,12.354-27.592,27.592-27.592h10.511
			C60.835,93.808,73.188,106.161,73.188,121.4L73.188,121.4z"/>
	</g>
</g>
<g>
</g>
<g>
</g>
<g>
</g>
<g>
</g>
<g>
</g>
<g>
</g>
<g>
</g>
<g>
</g>
<g>
</g>
<g>
</g>
<g>
</g>
<g>
</g>
<g>
</g>
<g>
</g>
<g>
</g>
</svg>
