<?xml version="1.0" encoding="iso-8859-1"?>
<!-- Generator: Adobe Illustrator 18.0.0, SVG Export Plug-In . SVG Version: 6.00 Build 0)  -->
<!DOCTYPE svg PUBLIC "-//W3C//DTD SVG 1.1//EN" "http://www.w3.org/Graphics/SVG/1.1/DTD/svg11.dtd">
<svg version="1.1" id="Capa_1" xmlns="http://www.w3.org/2000/svg" xmlns:xlink="http://www.w3.org/1999/xlink" x="0px" y="0px"
	 viewBox="0 0 243.632 243.632" style="enable-background:new 0 0 243.632 243.632;" xml:space="preserve">
<g>
	<ellipse style="fill:#BBBCBB;" cx="239.346" cy="136.975" rx="4.286" ry="8.971"/>
	<path style="fill:#F7CE18;" d="M231.322,141.595c-5.623-17.993-16.654-29.227-33.781-37.104
		c-15.155-6.971-21.134-26.906-21.134-39.364v-5.415h-51.859v50.531H4.963v43.312h119.585h51.859h58.652L231.322,141.595z"/>
	<polygon style="fill:#F2B21F;" points="237.925,126.799 224.714,137.476 224.714,141.036 239.791,145.947 	"/>
	<path style="fill:#CEF1F4;" d="M191.505,106.592c-19.637-11.501-20.469-33.184-20.17-40.337h-41.736v43.313h61.107
		C192.338,109.567,192.912,107.416,191.505,106.592z"/>
	<rect x="0" y="109.567" style="fill:#F2B21F;" width="124.523" height="4.737"/>
	<g>
		<path style="fill:#F2B21F;" d="M188.088,115.304c-0.194,0-0.391-0.057-0.563-0.175c-0.456-0.312-0.572-0.934-0.261-1.39
			l13.431-19.626c0.311-0.455,0.933-0.573,1.39-0.26c0.456,0.312,0.572,0.934,0.261,1.39l-13.431,19.626
			C188.721,115.152,188.407,115.304,188.088,115.304z"/>
	</g>
	<rect x="198.966" y="81.368" style="fill:#F2B21F;" width="5.865" height="20.303"/>
	<g>
		<path style="fill:#F2B21F;" d="M192.802,146.447h-63.703v-32.643h63.703V146.447z M130.099,145.447h61.703v-30.643h-61.703
			V145.447z"/>
	</g>
	<rect x="132.644" y="119.718" style="fill:#F2B21F;" width="10.828" height="1.354"/>
	<rect x="0" y="142.728" style="fill:#E85F21;" width="17.596" height="7.444"/>
	<rect x="4.963" y="153.555" style="fill:#51444C;" width="231.73" height="4.737"/>
	<g>
		<circle style="fill:#51444C;" cx="52.618" cy="161.508" r="22.413"/>
		<circle style="fill:#DBDBB9;" cx="52.618" cy="161.508" r="6.952"/>
		<circle style="fill:none;stroke:#DBDBB9;stroke-miterlimit:10;" cx="52.618" cy="161.508" r="9.644"/>
	</g>
	<g>
		<circle style="fill:#51444C;" cx="182.386" cy="161.508" r="22.412"/>
		<circle style="fill:#DBDBB9;" cx="182.386" cy="161.508" r="6.951"/>
		<circle style="fill:none;stroke:#DBDBB9;stroke-miterlimit:10;" cx="182.386" cy="161.508" r="9.644"/>
	</g>
	<path style="fill:#F2B21F;" d="M207.764,158.293h-50.757v-6.388c0-8.245,6.684-14.929,14.93-14.929h20.898
		c8.245,0,14.929,6.684,14.929,14.929V158.293z"/>
	<path style="fill:#F2B21F;" d="M77.827,158.293H27.07v-6.388c0-8.245,6.684-14.929,14.929-14.929h20.898
		c8.245,0,14.93,6.684,14.93,14.929V158.293z"/>
</g>
<g>
</g>
<g>
</g>
<g>
</g>
<g>
</g>
<g>
</g>
<g>
</g>
<g>
</g>
<g>
</g>
<g>
</g>
<g>
</g>
<g>
</g>
<g>
</g>
<g>
</g>
<g>
</g>
<g>
</g>
</svg>
