<?xml version="1.0" encoding="iso-8859-1"?>
<!-- Generator: Adobe Illustrator 18.0.0, SVG Export Plug-In . SVG Version: 6.00 Build 0)  -->
<!DOCTYPE svg PUBLIC "-//W3C//DTD SVG 1.1//EN" "http://www.w3.org/Graphics/SVG/1.1/DTD/svg11.dtd">
<svg version="1.1" id="Capa_1" xmlns="http://www.w3.org/2000/svg" xmlns:xlink="http://www.w3.org/1999/xlink" x="0px" y="0px"
	 viewBox="0 0 188.649 188.649" style="enable-background:new 0 0 188.649 188.649;" xml:space="preserve">
<g>
	<g>
		<circle style="fill:#51444C;" cx="163.072" cy="115.136" r="19.567"/>
	</g>
	<g>
		<circle style="fill:#DBDBB9;" cx="163.072" cy="115.136" r="6.069"/>
	</g>
	<g>
		<path style="fill:#DBDBB9;" d="M163.072,124.13c-4.959,0-8.992-4.034-8.992-8.993c0-4.959,4.033-8.993,8.992-8.993
			c4.958,0,8.992,4.034,8.992,8.993C172.064,120.095,168.03,124.13,163.072,124.13z M163.072,107.29
			c-4.327,0-7.847,3.521-7.847,7.847c0,4.327,3.52,7.848,7.847,7.848c4.326,0,7.847-3.521,7.847-7.848
			C170.919,110.81,167.398,107.29,163.072,107.29z"/>
	</g>
	<g>
		
			<rect x="141.423" y="95.3" transform="matrix(0.099 0.9951 -0.9951 0.099 241.149 -73.4305)" style="fill:#BBBCBB;" width="39.399" height="2.292"/>
	</g>
	<g>
		<path style="fill:#BBBCBB;" d="M98.693,128.83c-5.137,0-9.316-4.18-9.316-9.316v-16.25L28.412,59.718H13.352
			c-0.633,0-1.146-0.513-1.146-1.146c0-0.633,0.513-1.146,1.146-1.146h15.795l62.522,44.659v17.429c0,3.873,3.151,7.024,7.024,7.024
			c2.657,0,5.131-1.54,6.303-3.922l10.634-18.627c1.874-3.815,5.744-6.224,10.066-6.224c3.863,0,7.412,1.945,9.489,5.204
			l0.064,0.112l6.063,12.398l46.054-5.524c0.636-0.078,1.198,0.374,1.274,1.001c0.075,0.629-0.374,1.199-1.002,1.275l-47.669,5.716
			l-6.75-13.8c-1.659-2.563-4.467-4.092-7.524-4.092c-3.391,0-6.547,1.965-8.043,5.006L107.02,123.69
			C105.474,126.837,102.271,128.83,98.693,128.83z"/>
	</g>
	<g>
		<path style="fill:#F16C21;" d="M61.406,62.942H182.64l-45.445,35.969H97.375C77.51,98.911,61.406,82.807,61.406,62.942
			L61.406,62.942z"/>
	</g>
	<g>
		<rect x="57.382" y="58.572" style="fill:#F18424;" width="127.83" height="7.102"/>
	</g>
	<g>
		<path style="fill:#F18424;" d="M22.833,62.122H2.063C0.929,62.122,0,61.194,0,60.059v-4.05c0-1.135,0.929-2.063,2.063-2.063h20.77
			c1.135,0,2.063,0.929,2.063,2.063v4.05C24.896,61.194,23.968,62.122,22.833,62.122z"/>
	</g>
</g>
<g>
</g>
<g>
</g>
<g>
</g>
<g>
</g>
<g>
</g>
<g>
</g>
<g>
</g>
<g>
</g>
<g>
</g>
<g>
</g>
<g>
</g>
<g>
</g>
<g>
</g>
<g>
</g>
<g>
</g>
</svg>
